<svg width="15" height="20" viewBox="0 0 15 20" fill="none" xmlns="http://www.w3.org/2000/svg">
<path opacity="0.7" d="M3.25849 19.3366H-0.00179152V6.60255H3.25849V19.3366ZM1.62867 4.90956C1.3083 4.91338 0.994596 4.7879 0.728708 4.54958C0.458586 4.32734 0.246482 3.99937 0.121255 3.61049C-0.00397109 3.22161 -0.0362123 2.79079 0.0289702 2.3766C0.0912636 1.96305 0.248517 1.58552 0.478952 1.29652C0.704205 0.99251 0.994039 0.788033 1.30924 0.710587C1.62462 0.629034 1.9509 0.6707 2.24894 0.830582C2.54981 0.986827 2.80801 1.26127 2.98924 1.61757C3.16203 1.96577 3.25578 2.37304 3.25923 2.79054C3.25986 3.0699 3.21754 3.34652 3.13499 3.60329C3.05244 3.86005 2.9314 4.09157 2.77921 4.28359C2.47226 4.68624 2.05927 4.91117 1.62867 4.90956ZM14.9982 19.3366H11.858V13.1366C11.858 11.6696 11.8377 9.76259 10.2282 9.76259C8.59847 9.76259 8.348 11.3766 8.348 13.0296V19.3366H5.21818V6.60255H8.22871V8.33656H8.26844C8.58169 7.68031 9.01982 7.14651 9.53819 6.78957C10.0631 6.4294 10.6486 6.25488 11.2385 6.28261C14.4088 6.28261 14.9982 8.92263 14.9982 12.3496V19.3366Z" fill="white"/>
</svg>
