<svg width="16" height="18" viewBox="0 0 16 18" fill="none" xmlns="http://www.w3.org/2000/svg">
<path opacity="0.7" d="M15.9978 2.05608C15.3978 2.41366 14.7605 2.64733 14.1078 2.74907C14.7954 2.20035 15.3106 1.33819 15.5583 0.32207C14.9104 0.829111 14.2042 1.18967 13.468 1.38909C13.0189 0.744117 12.4328 0.297482 11.788 0.109057C11.1473 -0.0787765 10.4792 -0.00910571 9.86807 0.30913C9.25226 0.627197 8.72499 1.19084 8.35828 1.92314C7.98827 2.64621 7.78968 3.50081 7.78827 4.37615C7.78733 4.71315 7.81756 5.04901 7.87827 5.37615C6.57173 5.29355 5.29307 4.84336 4.12625 4.05522C2.95943 3.26709 1.93086 2.15884 1.10803 0.803149C0.688312 1.76573 0.559587 2.90545 0.748047 3.99016C0.934469 5.07855 1.42881 6.02892 2.12802 6.64311C1.60491 6.62863 1.09279 6.44064 0.637817 6.09612V6.1491C0.636694 7.16167 0.899339 8.1433 1.38086 8.92632C1.86238 9.70933 2.5329 10.2451 3.27783 10.4421C2.79286 10.6237 2.28263 10.6512 1.78827 10.5221C1.99943 11.3915 2.40858 12.1514 2.95877 12.6962C3.50896 13.2411 4.17283 13.5437 4.85803 13.5621C3.47851 14.9915 1.73367 15.6428 -0.00195312 15.3761C1.40687 16.5978 3.0376 17.2876 4.71695 17.3722C6.3963 17.4569 8.06148 16.9332 9.53546 15.8569C11.0094 14.7806 12.2372 13.1918 13.0881 11.2596C13.939 9.32731 14.3813 7.12376 14.3681 4.8831C14.3681 4.69611 14.368 4.50905 14.3583 4.32305C15.0022 3.70438 15.5575 2.93655 15.9978 2.05608Z" fill="white"/>
</svg>
