<svg width="16" height="14" viewBox="0 0 16 14" fill="none" xmlns="http://www.w3.org/2000/svg">
<path opacity="0.7" d="M13.289 0.336054H2.7088C2.3532 0.332321 2.0002 0.41821 1.66849 0.589106C1.34425 0.748208 1.04571 0.988053 0.788757 1.29602C0.539845 1.58598 0.341941 1.94548 0.209045 2.34899C0.0711262 2.73653 -0.000618747 3.16015 -0.000976562 3.58911V10.416C0.00356369 10.8505 0.0761559 11.2789 0.212158 11.6738C0.34816 12.0687 0.544554 12.4214 0.788757 12.7091C1.31842 13.3331 2.00203 13.6748 2.7088 13.6691H13.289C13.9958 13.6748 14.6794 13.3331 15.209 12.7091C15.4532 12.4214 15.6496 12.0687 15.7856 11.6738C15.9216 11.2789 15.9942 10.8505 15.9988 10.416V3.58911C15.9943 3.15461 15.9217 2.72618 15.7857 2.33129C15.6497 1.93641 15.4533 1.58371 15.209 1.29602C14.6794 0.672042 13.9958 0.330298 13.289 0.336054ZM8.67877 8.48303L6.27881 9.96301V4.04309L11.0787 7.00305L8.67877 8.48303Z" fill="white"/>
</svg>
